<?xml version="1.0" encoding="utf-8"?>
<!-- Generator: Adobe Illustrator 20.1.0, SVG Export Plug-In . SVG Version: 6.00 Build 0)  -->
<svg version="1.1" id="Layer_1" xmlns="http://www.w3.org/2000/svg" xmlns:xlink="http://www.w3.org/1999/xlink" x="0px" y="0px"
	 viewBox="0 0 611.2 357.2" style="enable-background:new 0 0 611.2 357.2;" xml:space="preserve">
<style type="text/css">
	.st0{fill:none;}
	.st1{fill:#5D5F5E;}
	.st2{fill:#B3B2AB;}
	.st3{fill:#649F90;}
	.st4{fill:#D76239;}
</style>
<g>
	<path class="st0" d="M182.2,233.9h-33.3V297h33.3c24,0,37.8-11.3,37.8-31.9C219.9,244.9,206.1,233.9,182.2,233.9z"/>
	<polygon class="st0" points="353.8,335.5 298.7,240.3 243.7,335.5 	"/>
	<path class="st0" d="M228.3,29.1c-29.1,0-53.4,22.9-53.4,51.9c0,28.9,24.3,52.2,53.4,52.2c29.1,0,53-23.3,53-52.2
		C281.2,52,257.4,29.1,228.3,29.1z"/>
	<path class="st0" d="M447.1,81.1c0-29.5-23.1-51.7-52.4-51.7h-37.5v103h38.1C424.3,132.4,447.1,110.4,447.1,81.1z"/>
	<path class="st1" d="M82.2,132.8c-29.5,0-53.2-23.3-53.2-52.1c0-28.9,23.7-51.9,53.2-51.9c14.4,0,28.5,6.2,38.6,16.2l9-10.8
		c-12.5-11.8-29.9-19-47.8-19c-37.9,0-68.1,28.9-68.1,65.5c0,36.9,29.9,66.1,67.5,66.1c18.1,0,35.6-7.6,48.5-19.8l-9.1-9.9
		C110.6,126.8,96.6,132.8,82.2,132.8z"/>
	<polygon class="st1" points="522.8,132.4 522.8,86.9 588.6,86.9 588.6,73.3 522.8,73.3 522.8,29.4 596.5,29.4 596.5,15.6 
		507.8,15.6 507.8,146.2 598.9,146.2 598.9,132.4 	"/>
	<path class="st1" d="M296.5,80.9c0-36.8-30.2-65.7-68.3-65.7c-38.3,0-68.5,28.9-68.5,65.7c0,36.8,30.2,65.9,68.5,65.9
		C266.3,146.8,296.5,117.7,296.5,80.9z M228.3,133.2c-29.1,0-53.4-23.3-53.4-52.2c0-28.9,24.3-51.9,53.4-51.9
		c29.1,0,53,22.9,53,51.9C281.2,109.8,257.4,133.2,228.3,133.2z"/>
	<path class="st1" d="M462.2,80.9c0-37.1-29.1-65.3-67.2-65.3h-52.8v130.6h52.2C432.9,146.2,462.2,118.1,462.2,80.9z M357.1,29.4
		h37.5c29.3,0,52.4,22.2,52.4,51.7c0,29.3-22.8,51.3-51.9,51.3h-38.1V29.4z"/>
	<polygon class="st2" points="529.6,286.6 589.4,286.6 589.4,279.7 529.6,279.7 529.6,233.9 596.7,233.9 596.7,227.1 522.7,227.1 
		522.7,342 598.9,342 598.9,335.2 529.6,335.2 	"/>
	<path class="st2" d="M438.3,335.4c-29.1,0-52.6-22.8-52.6-51.1c0-28.1,23.5-50.8,52.6-50.8c13.6,0,26.6,5.3,36.1,14.1l4.1-5.3
		c-10.7-9.5-25-15.4-40.4-15.4c-32.7,0-59.3,25.6-59.3,57.5c0,31.9,26.6,57.7,59.3,57.7c15.3,0,29.9-6.1,40.6-15.9l-4.3-4.8
		C464.7,330.1,451.9,335.4,438.3,335.4z"/>
	<path class="st2" d="M182.3,227.1h-40.4V342h6.9v-38.3h33.5c28.3,0,44.2-14.1,44.2-38.8C226.5,240.9,210.6,227.1,182.3,227.1z
		 M182.2,297h-33.3v-63.1h33.3c24,0,37.8,11,37.8,31.2C219.9,285.6,206.1,297,182.2,297z"/>
	<path class="st2" d="M27.5,253.6c0-12,11.8-19.5,30.1-19.5c9.9,0,21.5,2.8,30.1,8.4l3.1-6.2c-8.5-5.6-21.2-9.4-32.9-9.4
		c-22.7,0-37.8,10.7-37.8,27.3c0,41.4,67.5,23,67.2,59c0,13.5-12.7,22-32.4,22c-13.5,0-28.1-5.9-37.5-15.6l-3.6,6.1
		c10,9.9,25.6,16.6,40.9,16.6c24,0,39.9-11.5,39.9-29.2C95,270.5,27.5,288.6,27.5,253.6z"/>
	<polygon class="st3" points="333,286.8 332.9,286.6 331.8,284.7 298.7,227.4 298.7,240.3 353.8,335.5 364.9,342 333.1,286.9 	"/>
	<polygon class="st4" points="298.7,240.3 298.7,227.4 232.6,342 243.7,335.5 	"/>
	<polygon class="st2" points="332.9,286.6 331.8,284.7 327.9,277.9 298.7,227.4 331.8,284.7 	"/>
	<polygon class="st2" points="333.1,286.9 364.9,342 333.4,287.4 	"/>
	<polygon class="st2" points="333.1,286.9 332.9,286.6 333,286.8 	"/>
	<polygon class="st2" points="243.7,335.5 232.6,342 364.9,342 353.8,335.5 	"/>
</g>
</svg>
